<svg width="386" height="386" viewBox="0 0 386 386" fill="none" xmlns="http://www.w3.org/2000/svg">
<g filter="url(#filter0_d_682_8608)">
<path fill-rule="evenodd" clip-rule="evenodd" d="M76.6273 41.9502C75.4658 56.9717 86.9441 75.1614 109.901 111.541L197.274 250L284.647 111.541C307.603 75.1614 319.082 56.9717 317.92 41.9502C316.908 28.8576 310.283 16.8425 299.751 8.99903C287.669 0 266.161 0 223.145 0H171.402C128.386 0 106.879 0 94.7957 8.99903C84.2644 16.8425 77.6396 28.8576 76.6273 41.9502ZM139.588 250H177.384L107.075 140.625L91.4364 164.062C73.784 191.449 67.2657 206.983 68.0648 218.309C68.7612 228.178 73.7112 237.259 81.6294 243.192C90.7156 250 107.006 250 139.588 250Z" fill="url(#paint0_linear_682_8608)"/>
</g>
<defs>
<filter id="filter0_d_682_8608" x="0.433968" y="0" width="385.132" height="385.132" filterUnits="userSpaceOnUse" color-interpolation-filters="sRGB">
<feFlood flood-opacity="0" result="BackgroundImageFix"/>
<feColorMatrix in="SourceAlpha" type="matrix" values="0 0 0 0 0 0 0 0 0 0 0 0 0 0 0 0 0 0 127 0" result="hardAlpha"/>
<feOffset dy="67.566"/>
<feGaussianBlur stdDeviation="33.783"/>
<feComposite in2="hardAlpha" operator="out"/>
<feColorMatrix type="matrix" values="0 0 0 0 0.913725 0 0 0 0 0.337255 0 0 0 0 0.490196 0 0 0 0.26 0"/>
<feBlend mode="normal" in2="BackgroundImageFix" result="effect1_dropShadow_682_8608"/>
<feBlend mode="normal" in="SourceGraphic" in2="effect1_dropShadow_682_8608" result="shape"/>
</filter>
<linearGradient id="paint0_linear_682_8608" x1="343.557" y1="372.727" x2="63.6391" y2="-4.8244" gradientUnits="userSpaceOnUse">
<stop stop-color="#17B0F3"/>
<stop offset="0.239482" stop-color="#3B7FE5"/>
<stop offset="0.458333" stop-color="#6749D5"/>
<stop offset="0.687502" stop-color="#DC40A4"/>
<stop offset="1" stop-color="#FD7842"/>
</linearGradient>
</defs>
</svg>
